# xmcd
#
# Track frame offsets:
#	150
#	22335
#	43560
#	60055
#	79357
#	95252
#	115505
#	133512
#	151405
#	171667
#	185547
#	200885
#	216797
#	231627
#	250437
#
# Disc length: 3555 seconds
#
# Revision: 6
# Processed by: cddbd v1.5.2PL0 Copyright (c) Steve Scherf et al.
# Submitted via: EasyCDDAExtractor 15.3.0.1
#
DISCID=d90de10f
DTITLE=Ana Gabriel - 30 Grandes Exitos - Una Voz Para Tu Corazon - CD 2
DYEAR=2000
DGENRE=Latin
TTITLE0=No Te Hago Falta
TTITLE1=Eres Diferente
TTITLE2=Amor Con Desamor
TTITLE3=Cosas Del Amor (Duo Con Vikki Carr)
TTITLE4=Que Poco Hombre
TTITLE5=Ni Un Roce (Nem Um Toque)
TTITLE6=Llena De Romance
TTITLE7=En La Oscuridad
TTITLE8=Luna
TTITLE9=Poquita Fe
TTITLE10=Esta Noche
TTITLE11=Quien Como Tu
TTITLE12=A Tu Lado
TTITLE13=Lo Se
TTITLE14=Obsesion
EXTD=YEAR: 2000
EXTT0=
EXTT1=
EXTT2=
EXTT3=
EXTT4=
EXTT5=
EXTT6=
EXTT7=
EXTT8=
EXTT9=
EXTT10=
EXTT11=
EXTT12=
EXTT13=
EXTT14=
PLAYORDER=
